<svg width="541" height="400" viewBox="0 0 541 400" fill="none" xmlns="http://www.w3.org/2000/svg">
<g clip-path="url(#clip0_67_134)">
<path d="M536.026 397.151C536.026 395.399 536.044 394.955 536.044 393.855C536.044 224.083 397.685 85.9602 227.624 85.9602C166.717 85.8767 107.165 103.904 56.5618 137.743C46.2806 144.618 19.7178 159.821 19.7178 159.821C76.9535 108.954 150.932 80.8817 227.562 80.951C400.378 80.951 541 221.324 541 393.864C541 394.961 540.994 396.056 540.983 397.151C540.933 401.967 535.116 399.778 536.026 397.151Z" fill="#BF826B"/>
<path d="M386.562 235.109C384.123 228.873 383.053 222.069 387.001 216.306C390.387 211.323 395.773 208.144 401.387 206.27C414.476 201.892 428.152 204.519 440.679 209.467C458.347 216.473 486.909 243.113 486.848 243.621C490.857 243.814 493.98 241.624 497.98 242.15C499.735 242.377 500.612 247.632 498.857 247.404C486.08 245.664 473.117 245.782 460.373 247.754C448.486 249.637 437.187 254.182 425.283 255.794C408.756 257.983 392.86 251.275 386.562 235.109ZM399.475 247.649C399.484 247.588 399.508 247.53 399.543 247.48C399.579 247.429 399.626 247.388 399.68 247.358C399.734 247.328 399.795 247.312 399.856 247.309C399.918 247.306 399.98 247.318 400.036 247.343C414.125 254.349 428.503 249.436 442.477 245.101C439.407 245.469 436.337 245.723 433.231 245.828C419.025 246.263 404.87 243.949 391.545 239.014C392.045 239.829 392.58 240.643 393.159 241.423C394.924 243.804 397.042 245.903 399.44 247.649H399.475ZM464.505 230.301C465.09 230.692 465.674 231.095 466.259 231.509C465.856 231.107 465.443 230.721 465.031 230.327C464.988 230.362 464.935 230.386 464.88 230.395C464.825 230.404 464.768 230.399 464.715 230.38L464.505 230.301ZM476.093 239.4C475.514 239.276 474.928 239.182 474.339 239.12C475.312 239.435 476.277 239.741 477.234 240.074C476.856 239.89 476.47 239.636 476.093 239.4ZM473.523 238.261C473.523 238.261 473.479 238.261 473.453 238.261H473.523ZM473.154 237.447C472.856 237.245 472.558 237.027 472.277 236.816L472.768 237.386C472.856 237.403 472.996 237.429 473.128 237.447H473.154ZM472.453 238.235L472.321 238.077C471.505 237.955 470.698 237.832 469.882 237.727C470.479 237.902 471.084 238.069 471.637 238.244C471.917 238.235 472.172 238.235 472.426 238.235H472.453ZM471.575 237.184C470.847 236.308 470.11 235.494 469.356 234.671L469.172 234.539C466.396 232.476 463.483 230.603 460.452 228.935C437.039 221.455 412.234 219.359 387.895 222.804C387.825 223.137 387.773 223.461 387.72 223.803C404.429 225.071 421.049 227.317 437.495 230.529C446.741 232.28 456.162 234.031 465.373 236.492C467.4 236.641 469.47 236.878 471.531 237.184H471.575ZM469.821 234.04C471.575 235.319 473.277 236.589 475.084 237.771C475.575 237.858 476.067 237.92 476.558 238.016C476.629 238.035 476.693 238.074 476.743 238.128C476.792 238.183 476.824 238.251 476.835 238.323C476.846 238.396 476.836 238.47 476.806 238.537C476.775 238.604 476.726 238.66 476.663 238.699C477.228 238.832 477.785 238.999 478.33 239.198C467.961 230.441 457.908 220.913 445.872 214.756C454.764 219.955 462.825 226.455 469.786 234.04H469.821ZM475.005 240.17L475.128 240.328C475.277 240.328 475.418 240.328 475.567 240.328C475.347 240.267 475.154 240.206 474.97 240.144L475.005 240.17ZM473.646 239.724C472.935 239.496 472.224 239.26 471.505 239.05C468.444 239.24 465.416 239.796 462.487 240.705C466.34 240.282 470.219 240.136 474.093 240.267L473.646 239.724ZM391.045 238.086C391.079 238.071 391.117 238.063 391.154 238.063C391.192 238.063 391.229 238.071 391.264 238.086C407.203 244.086 424.324 246.29 441.267 244.523C443.793 244.251 446.267 243.822 448.714 243.323C451.101 242.675 453.487 242.106 455.864 241.659C459.039 240.854 462.206 240.004 465.426 239.225C466.745 238.902 468.08 238.651 469.426 238.471C467.987 238.051 466.531 237.64 465.04 237.263C452.846 236.195 440.582 236.851 428.301 236.387C414.546 235.835 401.107 232.814 387.79 229.635C388.374 232.606 389.463 235.456 391.01 238.06L391.045 238.086ZM387.737 228.76C403.01 232.385 418.16 235.476 433.95 235.678C442.898 235.792 451.837 235.608 460.733 236.133C453.715 234.382 446.539 233.042 439.503 231.693C422.375 228.264 405.052 225.883 387.632 224.565C387.5 225.952 387.524 227.351 387.702 228.733L387.737 228.76ZM388.071 221.999C411.124 218.784 434.598 220.519 456.925 227.087C454.373 225.791 451.758 224.591 449.03 223.417C431.907 215.947 413.862 209.607 394.948 212.392C391.544 214.63 389.083 218.04 388.036 221.972L388.071 221.999ZM396.492 211.411C412.019 209.537 426.941 213.557 441.381 219.293C448.179 222.016 455.145 224.836 461.557 228.462C462.399 228.73 463.241 229.022 464.084 229.337C455.815 221.544 446.3 215.183 435.933 210.518C423.125 206.016 408.212 204.422 396.457 211.385L396.492 211.411ZM478.479 241.37C477.602 241.3 476.725 241.239 475.847 241.204C476.418 241.957 476.988 242.71 477.549 243.481C479.558 243.481 479.883 243.384 481.936 243.428C480.873 242.578 479.698 241.876 478.444 241.344L478.479 241.37ZM428.555 252.518C440.495 250.32 451.864 246.073 463.961 244.497C468.14 243.954 472.345 243.623 476.558 243.507C475.988 242.719 475.409 241.939 474.804 241.169C460.355 240.775 447.39 244.873 433.047 248.91C422.204 251.958 411.116 253.289 400.659 248.49C408.589 253.657 418.537 254.331 428.52 252.492L428.555 252.518Z" fill="#BF826B"/>
<path d="M497.831 245.784C497.559 238.2 497.664 230.581 497.945 222.962C497.746 222.846 497.585 222.676 497.48 222.471C487.831 204.011 473.672 187.678 466.566 167.921C461.303 153.384 459.127 131.508 473.584 121.358C488.041 111.208 500.717 123.171 504.577 137.296C509.761 156.3 503.7 176.092 502.27 195.183C501.007 211.936 505.068 232.84 505.674 249.672C505.709 251.424 497.892 247.527 497.831 245.784ZM499.471 172.834C500.291 175.851 500.904 178.921 501.305 182.021C502.401 174.516 503.524 166.967 503.875 159.479C502.419 163.849 500.884 168.315 499.445 172.834H499.471ZM499.182 200.193C499.182 199.842 499.235 199.492 499.261 199.15C499.209 193.072 498.479 187.018 497.085 181.101C496.287 184.166 495.603 187.232 495.103 190.314C496.819 193.873 498.16 197.6 499.103 201.436L499.182 200.193ZM499.796 193.397C500.112 190.568 500.489 187.722 500.893 184.876C500.688 181.798 500.225 178.742 499.507 175.742C499.375 175.19 499.226 174.638 499.077 174.087C498.524 175.891 497.989 177.712 497.498 179.534C498.57 184.099 499.338 188.73 499.796 193.397ZM498.84 205.657C498.84 205.657 498.84 205.596 498.84 205.561C498.84 205.316 498.84 205.079 498.919 204.843L498.971 203.967C498.175 199.572 496.837 195.292 494.989 191.225C494.892 191.847 494.805 192.46 494.726 193.082C496.742 198.472 498.051 204.1 498.621 209.826L498.84 205.657ZM494.392 190.008C493.892 188.992 493.366 187.985 492.804 186.986C492.462 186.408 492.103 185.839 491.743 185.235C492.568 187.328 493.383 189.421 494.155 191.523C494.226 191.023 494.305 190.498 494.392 189.973V190.008ZM497.787 217.383C498.542 209.502 496.91 201.997 494.515 194.667C493.732 201.079 494.142 207.581 495.726 213.845C496.427 214.993 497.12 216.175 497.787 217.357V217.383ZM498.085 217.926L498.156 218.058V217.926C498.13 217.925 498.105 217.916 498.085 217.9V217.926ZM490.515 205.508C488.295 199.203 486.453 192.784 484.067 186.505C480.234 176.442 472.953 167.317 466.68 158.419C466.917 159.497 467.154 160.556 467.417 161.581C471.593 177.625 481.453 191.461 490.515 205.482V205.508ZM466.303 156.467C472.374 165.224 479.462 174.087 483.848 183.816C487.357 191.777 489.445 200.341 492.497 208.547L494.462 211.7C493.242 205.528 493.076 199.195 493.971 192.968C492.769 189.526 491.418 186.102 490.059 182.695C486.322 177.441 481.883 172.615 478.655 166.932C472.198 155.451 470.698 142.087 469.707 129.126C464.68 136.806 464.645 147.35 466.303 156.484V156.467ZM473.523 124.8C472.38 125.789 471.348 126.899 470.444 128.11C471.935 146.404 475.137 162.019 486.76 177.003C487.532 178.001 488.26 178.999 488.98 180.007C487.392 175.996 485.857 171.976 484.646 167.913C480.214 152.853 478.212 137.186 478.716 121.498C476.828 122.339 475.078 123.457 473.523 124.817V124.8ZM479.506 121.148C478.898 138.774 481.474 156.365 487.111 173.079C488.19 176.223 489.409 179.341 490.62 182.45C492.048 184.612 493.349 186.854 494.515 189.167C495.094 185.918 495.84 182.686 496.708 179.464C495.287 173.097 493.576 166.748 492.454 160.311C490.323 147.727 489.777 134.926 490.831 122.207C489.154 121.167 487.257 120.531 485.291 120.35C483.326 120.169 481.345 120.448 479.506 121.165V121.148ZM491.603 122.68C490.41 138.109 491.551 153.629 494.989 168.718C495.691 171.818 496.445 174.848 497.147 177.949C497.638 176.197 498.156 174.446 498.7 172.694C497.597 169.373 496.717 165.982 496.068 162.544C494.655 153.156 497.612 144.372 500.77 135.641C500.788 135.589 500.816 135.54 500.854 135.5C500.892 135.459 500.938 135.427 500.989 135.405C498.989 130.229 495.708 125.448 491.603 122.698V122.68ZM501.358 136.394C496.971 148.655 495.515 158.647 499.103 171.424C500.682 166.441 502.393 161.528 503.954 156.729C504.118 151.314 503.65 145.897 502.559 140.589C502.246 139.173 501.844 137.778 501.358 136.412V136.394Z" fill="#BF826B"/>
<path d="M328.857 181.355C319.532 175.496 316.751 167.571 323.936 158.48C334.366 145.274 353.762 147.63 368.543 149.197C390.053 151.466 409.607 159.374 428.818 168.928C429.081 169.039 429.292 169.245 429.407 169.506C429.523 169.766 429.535 170.06 429.441 170.329C435.582 169.988 439.091 166.634 445.881 169.357C447.486 169.996 449.714 176.818 448.083 176.17C425.064 166.993 407.651 180.208 386.106 185.804C368.201 190.445 345.174 191.61 328.857 181.355ZM373.28 185.48C389.199 180.482 405.189 175.697 421.248 171.126C406.186 166.537 390.957 173.097 376.614 178.281C362.85 183.255 350.691 184.105 336.445 182.484C342.443 184.434 348.667 185.611 354.964 185.987C361.071 186.41 367.206 186.24 373.28 185.48ZM424.88 169.988C424.002 169.909 423.125 169.821 422.248 169.76C422.235 169.802 422.214 169.841 422.185 169.875C422.157 169.908 422.122 169.936 422.083 169.955C422.043 169.975 422 169.986 421.956 169.989C421.912 169.992 421.868 169.985 421.827 169.97C421.485 169.856 421.151 169.76 420.809 169.646C420.467 169.532 420.344 169.646 420.108 169.646C420.844 169.988 421.573 170.338 422.301 170.697C422.397 170.697 422.494 170.758 422.59 170.793C423.397 170.566 424.195 170.329 424.994 170.102C424.952 170.068 424.914 170.029 424.88 169.988ZM417.52 169.427C417.756 169.427 417.993 169.506 418.23 169.558C418.16 169.558 418.081 169.497 418.011 169.462C417.941 169.427 417.634 169.445 417.476 169.427H417.52ZM334.05 181.547C334.086 181.511 334.131 181.484 334.18 181.469C334.229 181.454 334.281 181.451 334.331 181.46C343.551 182.642 352.753 183.667 361.964 181.845C370.552 180.146 378.632 176.591 386.843 173.683C393.273 171.389 399.913 169.515 406.563 168.963C380.068 168.339 353.617 171.44 327.989 178.176C329.85 179.539 331.871 180.672 334.006 181.547H334.05ZM327.208 177.58C356.116 169.908 386.059 166.861 415.923 168.551C415.616 168.42 415.318 168.28 415.046 168.149C408.396 167.133 401.721 165.854 395.018 164.646C386.146 163.986 377.225 164.436 368.464 165.985C353.446 168.613 339.051 173.727 323.655 173.499C324.575 175.055 325.763 176.437 327.164 177.58H327.208ZM323.006 172.326C323.058 172.44 323.129 172.536 323.181 172.65C340.647 173.018 356.867 166.45 373.991 164.269C378.953 163.636 383.955 163.364 388.957 163.455C366.815 159.479 344.621 156.816 323.33 166.134C323.272 166.158 323.209 166.167 323.146 166.162C323.083 166.157 323.022 166.138 322.968 166.106C322.913 166.074 322.867 166.029 322.833 165.977C322.799 165.924 322.777 165.864 322.769 165.802C321.985 167.931 322.054 170.281 322.962 172.361L323.006 172.326ZM322.83 165.591C322.83 165.591 322.874 165.495 322.944 165.469C346.104 155.319 370.315 159.242 394.334 163.717C399.367 164.065 404.37 164.755 409.309 165.784C385.325 156.41 359.565 152.436 333.866 154.145C333.814 154.15 333.762 154.143 333.714 154.125C333.665 154.107 333.621 154.078 333.585 154.04C333.543 154.064 333.499 154.085 333.454 154.102C329.559 156.168 324.471 160.678 322.787 165.626L322.83 165.591ZM335.164 153.331C362.179 151.728 389.199 156.38 414.116 166.923C415.072 167.159 416.02 167.413 416.967 167.684C418.397 167.886 419.836 168.078 421.265 168.254C403.721 159.96 385.834 153.462 366.227 151.685C356.35 150.791 344.507 149.25 335.121 153.322L335.164 153.331ZM426.073 170.583L425.678 170.688L426.178 170.636L426.073 170.583ZM402.256 177.475C394.296 179.811 386.357 182.222 378.439 184.709C383.566 183.788 388.61 182.449 393.518 180.707C396.448 179.638 399.352 178.535 402.212 177.466L402.256 177.475Z" fill="#BF826B"/>
<path d="M448.741 179.463C446.472 173.705 444.8 167.731 443.749 161.633C443.445 161.554 443.178 161.372 442.995 161.117C436.814 152.68 429.496 145.135 421.248 138.697C415.598 134.17 410.344 129.668 406.159 123.705C397.29 111.094 389.799 90.3299 398.062 75.5386C405.379 62.4462 426.511 63.2781 434.828 74.7679C443.6 86.8357 442.021 104.946 442.723 119.063C443.723 138.732 448.381 161.493 455.881 179.998C456.539 181.653 449.381 181.083 448.741 179.463ZM431.477 142.927C431.196 142.332 430.889 141.754 430.599 141.176C427.583 136.952 425.118 132.361 423.266 127.514C416.089 115.355 407.554 104.046 397.826 93.8066C398.342 101.018 400.337 108.047 403.686 114.457C403.762 114.462 403.835 114.489 403.896 114.536C410.803 119.896 417.184 125.902 422.95 132.471C427.257 137.428 430.845 142.98 435.363 147.761L436.345 148.786C436.889 149.338 437.45 149.863 438.029 150.38C437.81 149.986 437.6 149.592 437.398 149.18C435.478 147.249 433.679 145.202 432.012 143.05C431.975 143.089 431.928 143.118 431.877 143.135C431.826 143.152 431.771 143.156 431.718 143.146C431.665 143.137 431.615 143.114 431.573 143.08C431.531 143.047 431.498 143.003 431.477 142.954V142.927ZM442.424 152.455C439.705 147.341 436.88 142.218 434.24 137.016C434.98 141.032 436.245 144.933 438.003 148.62C439.405 150.089 440.88 151.486 442.424 152.806V152.455ZM442.556 153.83C442.503 153.83 442.46 153.83 442.416 153.83C441.328 152.955 440.293 152.017 439.266 151.063L439.731 151.842C440.24 152.254 440.723 152.718 441.258 153.051C441.323 153.097 441.374 153.161 441.402 153.236C441.431 153.311 441.437 153.392 441.419 153.47C441.401 153.548 441.36 153.619 441.302 153.674C441.243 153.729 441.17 153.765 441.091 153.778C441.24 153.979 441.372 154.189 441.521 154.382C441.567 154.449 441.592 154.528 441.592 154.61C441.592 154.691 441.567 154.77 441.521 154.837C441.977 155.407 442.398 155.967 442.881 156.589L442.556 153.83ZM425.371 138.549C426.968 139.845 428.503 141.176 430.011 142.542C428.055 140.028 426.143 137.463 424.09 134.993C418.236 128.041 411.691 121.7 404.554 116.068C405.343 117.504 406.197 118.914 407.116 120.298C412.081 127.794 418.485 132.97 425.371 138.575V138.549ZM397.773 93.0098C397.838 92.9642 397.919 92.9443 397.998 92.954C398.077 92.9637 398.15 93.0022 398.203 93.0622C407.168 102.465 415.129 112.772 421.958 123.818C419.739 116.716 418.572 109.43 415.072 102.748C411.142 95.2254 404.475 88.0092 398.72 81.7914C398.189 83.8195 397.871 85.8976 397.773 87.9918C397.685 89.7082 397.685 91.3809 397.773 93.0361V93.0098ZM398.966 80.9595C398.966 80.9595 398.966 80.9595 399.027 80.9595C408.107 90.7591 416.695 101.321 420.248 114.404C421.642 119.689 423.425 124.864 425.581 129.887C427.275 132.865 428.862 135.904 430.398 138.986C432.173 141.804 434.183 144.467 436.407 146.947C434.929 143.154 433.89 139.205 433.31 135.177C430.248 129.221 427.675 123.026 425.617 116.655C420.607 100.48 417.449 84.8741 409.142 69.8988C403.651 71.8167 400.51 75.9678 398.966 80.9858V80.9595ZM410.186 69.5748C410.081 69.5748 409.984 69.6448 409.879 69.6711C417.16 82.8073 421.02 96.3376 424.792 110.831C426.81 118.206 429.518 125.375 432.88 132.243C432.31 127.926 431.941 123.556 431.38 119.308C429.117 102.135 425.643 85.2156 419.66 68.9268C416.488 68.5328 413.269 68.7649 410.186 69.6099V69.5748ZM420.493 69.1194C425.454 83.0335 429.004 97.4093 431.09 112.031C432.152 118.967 432.45 126.586 433.599 133.925C436.082 139.048 438.766 144.083 441.433 149.11C432.941 126.393 441.126 101.145 433.801 78.1746C432.96 76.7728 431.966 75.4687 430.836 74.2863C428.029 71.5064 424.405 69.6958 420.493 69.1194ZM439.108 102.205C438.696 95.4881 438.231 87.9829 435.529 81.5812C440.898 103.282 434.222 126.779 441.872 148.068C441.258 141.649 440.907 135.221 440.53 128.985C440.021 120.035 439.687 111.103 439.144 102.179L439.108 102.205Z" fill="#BF826B"/>
<path d="M369.359 118.819C366.429 115.815 368.026 112.977 366.184 109.045C366.011 108.977 365.853 108.876 365.719 108.747C348.542 91.9419 321.857 81.7833 312.207 58.287C305.68 42.366 311.33 18.5808 331.629 17.057C353.455 15.4193 361.052 40.702 361.227 57.8053C361.411 77.0717 360.517 102.696 375.149 117.671C376.412 118.924 370.587 120.071 369.359 118.819ZM361.394 94.5166C355.762 83.1319 348.323 72.623 344.577 60.4413C340.691 47.7605 340.261 34.3617 339.928 21.1905C335.75 19.673 331.179 19.6266 326.971 21.0591C325.686 36.2881 328.652 51.575 335.542 65.223L336.235 66.5103C337.779 68.1392 339.34 69.768 340.902 71.3882C349.193 79.9412 356.499 89.3939 362.683 99.5697C362.201 97.897 361.78 96.2068 361.394 94.5166ZM363.666 102.74C356.56 90.2605 347.56 79.8129 337.884 69.4616C345.033 81.6782 354.964 92.4323 363.885 103.335L363.684 102.766L363.666 102.74ZM318.374 64.2071C326.567 77.0543 339.647 85.3213 352.034 94.2014C346.778 86.1716 340.262 79.0393 332.734 73.0784C326.506 68.1655 320.216 63.4452 314.935 57.6039C315.889 59.8944 317.039 62.0978 318.374 64.1896V64.2071ZM314.102 55.4496C320.172 62.7271 327.831 68.1042 335.156 74.0592C342.691 80.1894 348.314 87.0465 353.578 95.0771C353.604 95.1149 353.623 95.1577 353.632 95.2029C353.641 95.2482 353.64 95.2947 353.63 95.3398C356.069 97.0913 358.464 98.9129 360.78 100.787C351.876 90.0941 342.305 79.3399 335.691 67.1233L334.305 65.6433C325.532 56.3779 317.549 46.5521 313.795 34.2391C311.172 40.9736 311.716 48.5049 314.102 55.4146V55.4496ZM316.646 28.9496C315.713 30.2516 314.911 31.642 314.251 33.1006C317.76 45.58 325.655 55.2745 334.322 64.5048L333.726 63.3313C327.611 50.2408 325.008 35.7889 326.173 21.3919C322.33 22.9183 319.019 25.5331 316.646 28.9145V28.9496ZM340.717 21.5408C341.042 34.5369 341.489 47.7606 345.323 60.2662C348.77 71.5021 355.367 81.2841 360.771 91.6266C360.525 90.3743 360.297 89.1395 360.087 87.9135C354.561 79.4695 350.922 69.9364 349.417 59.9626C347.912 49.9889 348.577 39.8085 351.367 30.1143C350.314 28.7016 349.14 27.383 347.858 26.1734C345.79 24.1864 343.369 22.6033 340.717 21.5057V21.5408ZM356.964 42.5061C356.389 51.2522 356.902 60.0356 358.49 68.6558C358.499 59.7933 358.903 50.7293 356.964 42.471V42.5061ZM358.517 72.6318C356.144 62.0043 355.416 51.0767 356.359 40.2292C355.403 36.9154 353.922 33.7756 351.972 30.9288C349.404 40.1498 348.773 49.8012 350.118 59.2773C351.463 68.7534 354.756 77.8498 359.789 85.9956C359.587 84.7083 359.394 83.4297 359.218 82.1862C358.798 79.0148 358.564 75.8216 358.517 72.623V72.6318Z" fill="#BF826B"/>
<path d="M245.046 146.973C233.466 130.526 250.555 112.565 266.099 108.212C290.223 101.452 316.637 107.801 340.665 111.715C340.894 111.748 341.108 111.848 341.279 112.004C348.209 111.059 349.069 109.377 355.999 111.024C357.701 111.418 363.245 115.989 361.543 115.595C348.056 112.399 333.854 114.526 321.901 121.532C311.374 127.75 303.479 137.646 294.022 145.23C280.705 155.818 257.23 164.295 245.046 146.973ZM265.415 154.268C266.134 154.268 266.845 154.268 267.538 154.268C267.538 154.268 267.538 154.268 267.591 154.215C280.634 147.443 292.703 138.945 303.47 128.95C299.25 131.262 295.075 133.644 290.96 136.131C281.741 141.718 272.854 147.787 264.205 154.215C264.599 154.233 265.003 154.25 265.406 154.268H265.415ZM319.128 120.026C319.655 119.693 320.19 119.378 320.725 119.054C318.716 119.054 316.628 119.054 314.514 119.054C313.514 120.035 312.576 120.998 311.716 121.857C310.412 123.17 309.102 124.475 307.786 125.771C311.529 123.798 315.307 121.883 319.12 120.026H319.128ZM318.69 115.297C321.725 115.229 324.761 115.314 327.787 115.551C328.524 115.253 329.261 114.973 330.006 114.675C326.269 114.912 322.532 115.105 318.795 115.175L318.69 115.297ZM317.725 116.094C316.892 116.812 316.093 117.548 315.321 118.284C317.602 118.24 319.839 118.284 322.006 118.284C323.392 117.513 324.822 116.821 326.269 116.182C323.401 116.042 320.558 115.998 317.716 116.094H317.725ZM306.128 126.428C308.005 124.589 310.382 121.839 313.058 119.115C300.777 119.58 287.539 122.023 279.074 130.194C271.6 137.41 267.284 147.025 258.696 153.138C260.126 153.584 261.594 153.901 263.082 154.084C276.567 144.004 290.779 134.93 305.602 126.936C305.759 126.769 305.944 126.603 306.119 126.428H306.128ZM257.801 152.832C268.328 145.633 272.714 132.339 283.6 125.613C292.083 120.359 303.338 118.608 313.856 118.319C314.602 117.583 315.356 116.865 316.128 116.173C306.205 116.661 296.449 118.915 287.32 122.829C273.433 128.819 261.88 138.636 250.546 148.4C250.482 148.447 250.405 148.472 250.327 148.47C252.511 150.39 255.046 151.871 257.792 152.832H257.801ZM249.906 148.076C249.907 148.033 249.917 147.991 249.935 147.952C249.953 147.913 249.979 147.878 250.011 147.849C261.415 138.04 273.056 128.092 287.013 122.075C296.543 117.996 306.748 115.712 317.111 115.341L317.243 115.236C315.488 115.236 313.734 115.236 311.979 115.175C302.821 114.824 293.469 113.598 284.407 115.612C279.626 117.311 274.898 119.299 270.249 121.41C261.09 126.901 253.336 134.949 246.046 142.603C246.046 142.603 245.984 142.603 245.949 142.603C246.915 144.651 248.247 146.506 249.879 148.076H249.906ZM306.049 114.097C310.198 114.316 314.304 114.369 318.409 114.308C319.812 113.191 321.336 112.236 322.953 111.461C319.629 110.927 316.304 110.419 312.97 109.964C304.726 110.137 296.555 111.548 288.732 114.15C294.476 113.658 300.25 113.64 305.996 114.097H306.049ZM245.616 141.911C251.678 135.553 258.064 128.915 265.327 123.696C258.169 127.102 251.221 130.702 244.589 133.907C244.519 133.932 244.441 133.932 244.37 133.907C244.11 136.632 244.52 139.379 245.563 141.911H245.616ZM244.458 133.154C252.423 129.283 260.871 124.878 269.608 120.893C273.339 118.585 277.364 116.788 281.574 115.551C282.451 115.306 283.328 115.096 284.206 114.912C291.976 112.017 300.097 110.167 308.356 109.412C305.97 109.132 303.584 108.895 301.198 108.703C301.194 108.772 301.167 108.837 301.121 108.888C301.074 108.94 301.012 108.973 300.943 108.983C282.688 112.775 264.485 116.751 247.519 124.747C247.519 124.747 247.44 124.747 247.405 124.747C246.424 126.431 245.649 128.228 245.098 130.097C244.795 131.084 244.564 132.09 244.405 133.11L244.458 133.154ZM273.135 109.509C263.406 111.094 253.406 115.394 248.037 123.652C264.327 116.155 281.732 112.215 299.215 108.572C290.511 107.858 281.753 108.154 273.117 109.456L273.135 109.509ZM324.611 111.785C322.99 112.435 321.46 113.292 320.058 114.334C324.374 114.246 328.69 114.045 333.033 113.791C333.48 113.66 333.91 113.546 334.375 113.432C331.094 112.848 327.822 112.282 324.559 111.733L324.611 111.785ZM314.918 123.074C314.093 123.433 313.426 123.748 313.163 123.871C310.76 125.079 308.374 126.332 305.996 127.601C303.365 130.167 300.68 132.672 297.855 135.054C289.05 142.413 279.494 148.826 269.345 154.189C288.127 152.359 300.663 133.977 314.865 123.021L314.918 123.074Z" fill="#BF826B"/>
<path d="M291.285 91.3198C288.083 87.7029 290.627 85.8639 288.443 81.853C288.288 81.9919 288.099 82.0865 287.895 82.1266C287.691 82.1667 287.48 82.1508 287.285 82.0807C269.626 76.6686 254.678 64.7934 246.142 48.3207C240.598 37.6453 232.168 13.1595 243.642 3.48255C258.634 -9.17198 273.661 15.883 277.293 27.2502C284.442 49.678 281.679 72.5088 298.347 91.3811C299.549 92.686 292.417 92.6334 291.285 91.3198ZM286.548 78.0697C285.273 77.2465 284.039 76.3913 282.846 75.5038L283.337 76.2044C283.934 76.9838 284.574 77.772 285.258 78.5514C285.855 78.7616 286.451 78.9542 287.057 79.1469L286.548 78.0697ZM282.416 66.869C280.933 65.2576 279.381 63.7426 277.828 62.2626C278.105 66.1863 279.324 69.9859 281.381 73.3407L281.451 73.4545C282.89 74.6018 284.39 75.6964 285.934 76.7386C284.541 73.531 283.366 70.2338 282.416 66.869ZM276.74 61.2204C275.345 59.9068 273.977 58.5932 272.652 57.227C273.998 60.6643 275.617 63.9881 277.495 67.1667C277.32 66.4798 277.183 65.784 277.082 65.0825C276.916 63.8126 276.81 62.5253 276.74 61.2379V61.2204ZM249.493 48.8286C253.977 56.7973 260.107 63.723 267.477 69.1459C257.195 53.8729 249.625 36.323 241.159 20.1042C241.308 22.5037 241.642 24.8945 241.958 26.9963C243.138 34.666 245.69 42.0612 249.493 48.8286ZM241.747 12.3888C241.224 14.5308 241.02 16.738 241.142 18.9394C241.22 18.9036 241.309 18.9001 241.389 18.9296C241.47 18.9592 241.536 19.0194 241.572 19.0971C250.432 36.1215 258.301 54.6085 269.301 70.4508C272.654 72.7569 276.209 74.753 279.925 76.4146C256.695 60.9489 248.993 32.2682 246.283 5.47917C244.012 7.18574 242.408 9.62915 241.747 12.3888ZM247.011 5.04129C249.765 32.8375 257.809 62.8405 283.425 77.7282C282.296 76.4199 281.258 75.0359 280.319 73.5859C270.37 65.4784 262.97 54.683 259.001 42.4894C255.033 30.2957 254.665 17.2192 257.941 4.82236C254.055 3.02708 250.107 3.18471 247.011 5.04129ZM259.581 5.61055C259.274 5.42664 258.959 5.27782 258.652 5.12019C255.537 17.0027 255.807 29.5173 259.432 41.2547C263.057 52.9921 269.893 63.486 279.17 71.5542C279.083 71.3966 279.021 71.2214 278.942 71.0638C275.788 66.2954 273.223 61.1644 271.301 55.782C268.191 52.542 265.799 48.6836 264.284 44.4586C260.397 32.9951 262.152 20.7084 264.073 9.03474C262.697 7.74293 261.192 6.5955 259.581 5.61055ZM264.845 9.63896C262.739 22.4686 260.906 36.4105 266.88 48.5396C267.981 50.7474 269.358 52.8072 270.977 54.6698C270.828 54.1882 270.643 53.724 270.512 53.2336C267.494 42.4444 269.152 31.4275 272.038 20.831C272.05 20.7866 272.071 20.745 272.1 20.7089C272.129 20.6728 272.164 20.6428 272.205 20.6208C270.451 16.5279 267.939 12.8021 264.801 9.63896H264.845ZM272.626 21.6104C269.652 32.7587 268.152 44.3186 272.029 55.4843L272.258 56.0885C273.679 57.6123 275.205 59.0573 276.749 60.4673C276.442 53.6802 277.196 46.5692 277.626 39.9311C276.642 33.654 274.95 27.508 272.582 21.6104H272.626ZM278.161 43.5041C277.846 49.1789 277.574 54.8887 277.74 60.546C277.74 60.8613 277.793 61.1416 277.81 61.4218C279.258 62.7529 280.705 64.049 282.091 65.4677C281.043 61.4853 280.217 57.4477 279.618 53.3737C279.1 50.2911 278.653 46.9458 278.117 43.5041H278.161Z" fill="#BF826B"/>
<path d="M241.01 84.7604C237.299 82.86 239.484 80.6794 236.141 78.201C235.959 78.2356 235.771 78.2356 235.589 78.201C224.393 75.8419 213.413 72.5583 202.763 68.384C195.745 65.5641 188.797 62.0523 184.121 55.9134C177.542 47.2698 173.594 28.3273 184.455 21.0587C196.736 12.8792 207.798 26.6371 211.561 36.8921C215.833 48.5308 221.018 58.7858 228.492 67.2805C230.852 68.7975 232.857 70.8047 234.369 73.1655C238.544 76.8189 243.155 79.9428 248.098 82.4659C249.651 83.2453 242.563 85.5573 241.01 84.7604ZM209.342 59.9943C208.675 59.7928 207.991 59.6265 207.315 59.4425C209.61 61.3969 212.024 63.2074 214.544 64.8635L214.842 64.9949C213.57 63.5849 212.395 62.1049 211.272 60.6161C210.614 60.3622 209.956 60.1869 209.342 59.9943ZM186.762 54.8187C186.937 55.0376 187.121 55.2478 187.306 55.458C187.357 55.4262 187.416 55.4093 187.477 55.4093C187.537 55.4093 187.596 55.4262 187.648 55.458C197.534 62.0523 209.087 65.0912 219.86 69.8027C218.983 69.0233 218.044 68.2176 217.228 67.3856C216.219 66.7901 215.228 66.1859 214.254 65.5466C209.143 63.3531 204.27 60.6446 199.71 57.4634C195.394 56.5088 191.078 55.6506 186.762 54.8187ZM197.982 56.2987C191.406 51.4528 185.588 45.6594 180.717 39.1078C181.043 44.4444 182.897 49.5754 186.06 53.8903C190.034 54.661 194.016 55.4317 197.982 56.2987ZM226.623 69.7413C223.845 69.0453 221.104 68.2064 218.412 67.2279C221.815 69.1689 225.371 70.8296 229.045 72.1935C228.22 71.3965 227.413 70.5733 226.623 69.7413ZM210.596 63.042C208.842 61.7459 207.175 60.4147 205.561 58.961C204.298 58.6194 203.026 58.2866 201.745 57.9801C204.587 59.8501 207.543 61.5407 210.596 63.042ZM216.57 65.6692C219.544 66.8557 222.584 67.8674 225.676 68.6992C224.886 67.8235 224.106 66.9477 223.36 66.072C221.395 64.9861 219.369 63.8388 217.43 62.569C215.763 61.9648 214.114 61.4306 212.517 60.9314C213.774 62.5916 215.127 64.1764 216.57 65.6779V65.6692ZM230.527 73.5509C226.983 72.3344 223.537 70.85 220.22 69.1108C221.097 69.8202 221.974 70.512 222.851 71.1863C224.272 71.8606 225.685 72.5701 227.062 73.332C228.562 73.7173 230.053 74.1025 231.553 74.4616L230.527 73.5509ZM211.228 68.6117C215.096 69.9516 219 71.1513 222.939 72.2459L222.386 71.8431C211.386 66.5887 199.315 63.6374 188.876 57.1919L188.999 57.3233C195.043 63.1295 203.57 65.9494 211.263 68.6117H211.228ZM180.638 37.7329C185.965 45.1026 192.488 51.5316 199.938 56.7541C201.403 57.0956 202.85 57.4459 204.324 57.8137C194.979 49.0835 188.096 38.0541 184.367 25.8314C184.367 25.7789 184.367 25.7439 184.367 25.7002C182.396 28.0438 181.173 30.9233 180.858 33.9671C180.713 35.217 180.652 36.475 180.674 37.7329H180.638ZM184.674 25.3761C184.763 25.3571 184.856 25.3728 184.935 25.42C185.013 25.4671 185.07 25.5422 185.095 25.63C188.912 38.1715 196.086 49.4353 205.842 58.2078C207.394 58.6282 208.938 59.0835 210.473 59.5564C202.999 48.8811 198.99 35.7449 196.578 22.6263C194.551 21.8448 192.336 21.6891 190.22 22.1794C188.104 22.6697 186.184 23.7834 184.709 25.3761H184.674ZM220.711 62.6741C217.582 58.1569 214.964 53.3078 212.903 48.2155C209.596 40.5177 208.026 30.9721 201.297 25.3761C200.128 24.3973 198.826 23.5894 197.429 22.9766C199.903 36.1653 204.017 49.354 211.745 59.9593C212.93 60.3446 214.114 60.7475 215.254 61.1766C213.075 59.6984 211.132 57.9003 209.491 55.8432C205.333 50.3523 206.482 41.735 207.289 35.4297C207.35 34.9393 208.166 34.9305 208.07 35.4297C207.008 43.6792 206.315 52.1739 213.167 58.1289C215.203 59.8596 217.367 61.4346 219.641 62.8404C220.211 63.0681 220.79 63.3134 221.395 63.5586C221.211 63.2609 220.965 62.9894 220.746 62.6741H220.711Z" fill="#BF826B"/>
<path d="M175.533 144.188C170.27 140.142 167.962 133.679 168.577 127.19C169.454 117.916 174.866 111.733 181.981 106.277C200.175 92.2654 224.176 93.4389 245.905 91.5648C245.964 91.5599 246.022 91.5599 246.081 91.5648C250.011 88.8675 248.914 86.8445 252.879 84.2348C254.344 83.2715 260.774 85.0142 259.327 85.9863C238.194 99.8843 218.834 114.071 204.763 135.405C198.139 145.458 186.972 153.033 175.533 144.188ZM171.34 126.428C180.761 116.961 193.464 112.154 205.438 106.715C212.272 103.606 220.404 98.5182 228.501 96.8455C230.29 96.1572 232.118 95.5724 233.975 95.094C233.098 95.1378 232.273 95.1815 231.413 95.2341C223.816 96.7666 216.5 100.243 209.123 102.424C200.491 104.972 191.709 106.969 182.928 108.957C177.165 113.432 172.314 119.238 171.357 126.428H171.34ZM184.437 107.784C193.552 105.717 202.666 103.597 211.588 100.839C216.904 99.1925 222.114 96.9769 227.378 95.4444C213.825 96.3201 200.183 97.9839 188.648 104.981C187.235 105.839 185.823 106.776 184.437 107.784ZM238.317 94.8137C236.326 95.2516 234.352 95.7508 232.422 96.3463C232.703 96.3463 232.992 96.3463 233.299 96.3463C234.798 95.7336 236.429 95.5136 238.036 95.707C238.159 95.707 238.273 95.707 238.387 95.707C238.455 95.7058 238.522 95.7253 238.578 95.7628C238.634 95.8004 238.678 95.8542 238.703 95.9172C238.799 95.9469 238.892 95.9819 238.984 96.0223C239.449 95.8997 239.914 95.7858 240.37 95.672C240.835 95.3392 241.3 94.9977 241.773 94.6649C240.607 94.6737 239.466 94.7437 238.317 94.8137ZM238.379 96.9243H238.335C238.349 96.9217 238.364 96.9217 238.379 96.9243ZM236.624 97.3447C234.694 97.8526 232.729 98.3955 230.747 98.9735C229.411 99.9054 228.173 100.971 227.053 102.152C228.72 101.928 230.398 101.794 232.08 101.75C233.91 100.313 235.767 98.9093 237.65 97.5373C237.343 97.4585 237.001 97.3972 236.65 97.3447H236.624ZM226.202 103.063C223.775 105.901 221.641 108.975 219.834 112.241C223.395 108.843 227.141 105.638 231.01 102.608C229.409 102.674 227.813 102.826 226.229 103.063H226.202ZM215.535 116.515C216.29 115.718 217.079 114.973 217.851 114.203C219.873 110.32 222.28 106.65 225.036 103.247C222.651 103.665 220.304 104.274 218.018 105.069C217.562 105.603 217.14 106.163 216.702 106.759C212.5 112.723 209.552 119.65 207.315 126.673C209.806 123.086 212.563 119.691 215.562 116.515H215.535ZM225.825 102.336C226.7 101.36 227.645 100.447 228.65 99.6041C228.08 99.7793 227.51 99.9544 226.896 100.138C223.58 101.443 220.755 102.66 220.421 102.844C220.088 103.028 220.009 103.09 219.807 103.203C219.606 103.317 219.316 103.659 219.088 103.895C221.3 103.205 223.561 102.684 225.852 102.336H225.825ZM223.878 100.313C224.93 99.8405 226.001 99.3764 227.08 98.956C228.159 98.5356 229.466 97.8701 230.869 97.2045C230.282 97.2746 229.694 97.3534 229.115 97.4585C227.03 98.2601 225.039 99.2849 223.176 100.515C223.422 100.471 223.667 100.392 223.904 100.313H223.878ZM202.394 134.038C203.543 132.287 204.71 130.535 205.903 128.784C208.254 120.666 211.561 112.145 216.667 105.559C216.316 105.691 215.965 105.839 215.623 105.979C212.059 108.709 208.924 111.956 206.324 115.613C199.912 124.484 195.043 134.66 190.534 144.6C190.323 145.055 189.657 144.661 189.858 144.215C195.552 131.551 201.912 116.76 212.57 107.354C198.306 114.483 188.253 128.609 181.77 143.829C181.577 144.285 180.893 143.891 181.104 143.444C188.121 127.041 199.148 112.031 215.044 105.358C216.247 104.474 217.494 103.653 218.781 102.897C199.947 109.903 181.788 121.007 175.489 139.468C175.331 139.941 174.612 139.739 174.744 139.267C181.358 119.878 200.736 108.519 220.465 101.461C221.844 100.315 223.337 99.3139 224.922 98.4744C216.228 101.102 207.377 106.636 200.482 109.763C189.955 114.536 179.428 119.046 171.278 127.488C171.278 127.488 171.217 127.488 171.182 127.488C171.103 128.508 171.103 129.533 171.182 130.553C171.429 134.273 172.988 137.785 175.584 140.466C178.179 143.147 181.642 144.822 185.358 145.195C193.753 145.949 198.271 140.326 202.42 134.038H202.394Z" fill="#BF826B"/>
<path d="M187.472 85.4526C171.261 81.8445 155.304 76.4499 139.601 71.0728C128.531 67.2896 110.652 56.8945 121.179 42.9877C129.899 31.5154 146.619 36.5071 154.514 46.1053C162.892 56.2289 166.796 70.0219 176.086 79.3836C176.206 79.5111 176.301 79.6595 176.366 79.8215C180.279 80.9074 192.051 81.8357 196.008 82.7202C197.736 83.1318 189.183 85.8291 187.472 85.4526ZM152.856 72.6229C156.901 73.919 160.962 75.2502 165.024 76.5025C163.772 75.6377 162.675 74.5689 161.778 73.3409C161.313 73.157 160.848 72.9732 160.383 72.7806C155.439 71.5239 150.619 69.8269 145.979 67.71C141.452 66.7028 136.856 65.9585 132.25 65.2229C133.364 65.8396 134.515 66.3866 135.698 66.8605C141.294 69.0236 147.137 70.7488 152.856 72.6229ZM169.103 75.0049L168.743 74.4794C168.445 74.4269 168.138 74.3831 167.866 74.3305C167.832 74.3844 167.784 74.4278 167.726 74.4556C167.669 74.4835 167.605 74.4948 167.541 74.4882C167.61 74.5198 167.678 74.5548 167.743 74.5933C168.173 74.7071 168.638 74.8385 169.103 74.9786V75.0049ZM152.058 48.2071C152.19 53.9432 152.646 61.5884 156.822 66.0197C157.594 66.8195 158.433 67.552 159.33 68.2091C158.414 64.8684 158.321 61.3561 159.058 57.9717C156.976 54.5446 154.636 51.2803 152.058 48.2071ZM160.901 70.3021C161.115 70.7633 161.352 71.2134 161.611 71.6508C162.146 71.8785 162.69 72.0975 163.217 72.3427C164.094 72.6229 164.883 72.8943 165.725 73.1483C166.155 73.2271 166.603 73.3147 166.998 73.3935C165.031 72.529 163.115 71.5524 161.26 70.4686C161.12 70.4073 161.006 70.3547 160.883 70.3021H160.901ZM154.137 69.803C153.032 69.4702 151.918 69.1549 150.795 68.8484C152.427 69.4906 154.076 70.0744 155.742 70.5998C155.19 70.3459 154.69 70.0832 154.12 69.803H154.137ZM130.513 64.1456C134.733 64.7849 138.943 65.4593 143.11 66.2913C134.971 62.1642 127.546 56.7625 121.118 50.2914C120.758 55.5984 125.206 60.7477 130.496 64.1456H130.513ZM121.232 49.3105C128.438 56.6654 136.929 62.6455 146.286 66.9568C147.926 67.3159 149.567 67.7187 151.19 68.1566C140.636 61.9051 131.79 53.152 125.434 42.6724C123.294 44.3256 121.801 46.6739 121.214 49.3105H121.232ZM126.206 42.0244L126.03 42.1732C132.127 52.2463 140.549 60.717 150.593 66.8779C149.074 65.7884 147.64 64.5852 146.303 63.2786C139.601 56.6492 135.092 47.6291 130.224 39.6335C128.786 40.2636 127.431 41.0666 126.188 42.0244H126.206ZM130.96 39.3095C135.408 46.6395 139.584 54.6877 145.286 61.0718C148.857 64.9743 153.192 68.1039 158.023 70.2672C158.848 70.5562 159.673 70.8627 160.488 71.1429C160.261 70.6922 160.056 70.2304 159.874 69.7592C155.664 67.6311 151.716 64.9338 148.909 61.3433C144.207 55.3269 142.373 46.333 140.233 39.1519C137.212 38.1075 133.917 38.1758 130.943 39.3445L130.96 39.3095ZM141.137 39.5459C143.119 46.2542 144.996 54.1972 148.918 59.907C151.029 62.8268 153.716 65.2854 156.813 67.1319C156.218 66.5626 155.672 65.9445 155.181 65.2841C151.795 60.6339 151.4 53.6367 151.286 48.102C151.282 48.0527 151.289 48.0031 151.306 47.9567C151.323 47.9103 151.35 47.8681 151.385 47.8331C151.42 47.7982 151.462 47.7712 151.509 47.7541C151.556 47.7371 151.605 47.7302 151.655 47.7341C148.549 44.1874 144.988 41.096 141.119 39.5459H141.137ZM159.664 58.9613C159.052 62.291 159.288 65.7206 160.348 68.936C160.778 69.2163 161.225 69.5053 161.646 69.8118C163.524 70.6875 165.418 71.4844 167.278 72.1762C164.734 68.0427 162.462 63.6727 160.076 59.6881L159.664 58.9613ZM170.752 77.2644C169.659 76.5638 168.544 75.9011 167.41 75.2764C165.997 74.8473 164.603 74.4007 163.225 73.8577C165.216 76.0578 167.899 77.5131 170.831 77.9824C170.909 77.9934 170.981 78.0341 171.03 78.0961C171.079 78.1581 171.102 78.2366 171.094 78.3152L171.708 78.4991C171.357 78.0962 171.05 77.676 170.735 77.2644H170.752Z" fill="#BF826B"/>
<path d="M112.67 146.404C108.617 132.646 120.565 119.186 130.881 112.25C150.023 99.3415 152.707 94.1133 161.418 90.1024C162.997 89.3755 170.936 90.5316 169.313 91.2847C164.286 93.6901 159.384 96.35 154.628 99.254C154.634 99.5066 154.561 99.7546 154.418 99.9633C144.04 115.324 150.137 136.701 138.233 151.107C130.215 160.81 116.398 159.059 112.67 146.404ZM134.294 134.879C134.68 131.982 135.267 129.114 136.048 126.297C136.662 124.064 137.391 121.918 138.189 119.703C136.627 120.946 135.013 122.146 133.338 123.267L132.89 123.757C125.25 132.252 116.609 142.148 121.372 154.268C122.159 154.633 122.996 154.881 123.855 155.004C124.135 147.061 129.759 141.649 133.978 135.308L134.294 134.879ZM147.76 107.311L147.391 107.722C147.064 108.89 146.722 110.02 146.365 111.112C146.47 110.989 146.593 110.884 146.698 110.77C147.014 109.605 147.365 108.458 147.76 107.311ZM145.409 105.104C144.707 106.575 144.005 108.055 143.321 109.544C145.233 107.363 147.067 105.086 148.918 102.801C147.742 103.554 146.572 104.322 145.409 105.104ZM149.304 103.545C147.549 105.778 145.795 108.046 143.882 110.218L148.584 105.157C148.812 104.614 149.058 104.079 149.304 103.545ZM146.172 109.08L140.961 114.851C140.671 115.534 140.382 116.208 140.084 116.9C141.828 115.482 143.5 113.977 145.093 112.39C145.488 111.295 145.838 110.192 146.172 109.08ZM139.47 116.515L136.838 119.44C137.54 118.914 138.25 118.398 138.943 117.855L139.47 116.515ZM139.373 118.783C137.727 122.944 136.47 127.247 135.619 131.639C135.531 132.138 135.461 132.637 135.399 133.137C139.118 127.149 142.177 120.777 144.523 114.133C142.873 115.762 141.157 117.312 139.373 118.783ZM120.372 153.699C117.354 145.029 120.986 136.929 126.513 129.896C127.767 128.311 129.066 126.744 130.381 125.185C124.144 129.064 117.583 132.848 115.196 139.854C114.942 145.309 116.398 151.098 120.372 153.699ZM115.495 137.279C117.425 133.513 120.591 130.579 124.329 128.022C127.267 126.017 130.162 124.125 132.987 122.181C135.478 119.326 138.04 116.515 140.619 113.73C139.325 115.023 137.938 116.22 136.469 117.312C130.557 121.691 123.679 124.186 118.416 129.406C117.977 130.15 117.539 130.912 117.17 131.692C116.335 133.46 115.77 135.343 115.495 137.279ZM120.065 126.866C124.004 123.635 128.539 121.393 132.943 118.687C136.156 116.653 139.083 114.199 141.645 111.392C142.461 109.562 143.303 107.749 144.154 105.945L142.645 106.96C134.566 112.478 125.794 118.652 120.065 126.866ZM144.321 123.293C142.503 126.25 141.031 129.406 139.935 132.699C138.636 136.902 138.592 141.202 138.803 145.537C140.473 142.107 141.696 138.479 142.444 134.739C143.233 130.921 143.768 127.085 144.321 123.293ZM138.084 146.816C137.592 136.946 139.838 129.695 144.602 121.358C145.066 118.293 145.584 115.228 146.303 112.285C146.145 112.46 145.979 112.627 145.812 112.793C143.945 118.434 141.564 123.893 138.698 129.099C137.662 130.915 136.523 132.669 135.285 134.354C134.855 140.064 135.891 146.387 134.189 151.72C135.738 150.301 137.053 148.646 138.084 146.816ZM128.434 154.697C130.08 154.322 131.632 153.615 132.996 152.622C134.89 148.007 133.662 142.849 133.969 138.014C134.022 137.279 134.101 136.552 134.18 135.825C129.794 141.824 124.899 148.086 124.671 155.03C125.933 155.12 127.201 155.022 128.434 154.741V154.697Z" fill="#BF826B"/>
<path d="M73.9837 167.834C64.2814 162.133 68.9746 149.312 73.5363 142.025C80.6156 130.737 90.4845 122.943 101.248 115.368C101.432 115.24 101.648 115.165 101.871 115.149C103.906 111.532 106.538 108.222 110.187 106.286C111.731 105.472 117.758 105.638 116.205 106.453C109.231 110.157 101.555 121.393 99.2307 128.259C96.3884 136.64 95.6252 145.134 93.6952 153.655C91.8092 161.949 83.9228 173.692 73.9837 167.834ZM90.4495 155.573L90.9319 153.822C91.1242 149.006 91.5693 144.203 92.2653 139.433C91.0986 141.684 89.9319 143.935 88.7564 146.159L87.6423 148.138C86.965 152.953 86.6717 157.814 86.765 162.675C86.7655 162.708 86.7596 162.74 86.7476 162.77C86.7355 162.8 86.7176 162.828 86.6949 162.851C88.4393 160.714 89.7127 158.234 90.4319 155.573H90.4495ZM97.5902 124.922H97.5025C96.7744 125.868 96.0463 126.822 95.3007 127.751C94.7743 129.963 94.3034 132.191 93.8882 134.433C94.6339 132.97 95.3532 131.499 96.0813 130.054C96.5082 128.373 97.0054 126.677 97.5727 124.966L97.5902 124.922ZM94.9058 123.276C94.919 123.333 94.919 123.393 94.9058 123.451C94.5023 124.327 94.1427 125.202 93.7655 126.131C94.0813 125.947 94.4146 125.772 94.7304 125.588L95.2128 124.948C95.4146 124.151 95.634 123.363 95.8533 122.566L94.9058 123.276ZM74.1241 164.392C74.2375 158.537 75.2098 152.731 77.0101 147.157C73.6766 151.177 71.5362 155.713 72.4836 162.045C72.8942 162.923 73.442 163.73 74.1065 164.436L74.1241 164.392ZM74.9048 165.066C76.1972 166.039 77.7998 166.509 79.4137 166.389C78.2295 156.344 81.949 146.106 87.3089 136.815C86.5896 137.542 85.8878 138.286 85.1422 139.004C82.7648 141.299 80.3612 143.453 78.2734 145.73C76.0759 151.959 74.9229 158.507 74.8609 165.11L74.9048 165.066ZM90.3003 131.928L91.1776 130.588C91.4846 129.712 91.7741 128.898 92.0987 128.066C87.4844 131.009 83.414 134.608 80.7999 139.705C80.2647 140.756 79.7647 141.868 79.291 143.015C82.8789 139.267 86.651 135.676 90.2828 131.972L90.3003 131.928ZM94.6865 126.928L93.8882 128.031L94.6252 127.155L94.6865 126.928ZM92.932 128.075L93.59 127.199C93.4672 127.269 93.3531 127.348 93.2303 127.427C93.1075 127.654 92.9934 127.882 92.9057 128.119L92.932 128.075ZM96.8533 121.822L96.4498 123.311C97.1867 122.356 97.9148 121.419 98.6429 120.517L96.8533 121.822ZM96.3796 124.686L96.9761 124.37C97.3007 123.959 97.634 123.556 97.9586 123.136C97.9957 123.085 98.0448 123.044 98.1013 123.017C98.1579 122.989 98.2203 122.976 98.2832 122.978C98.4674 122.47 98.6692 121.971 98.871 121.472C98.0288 122.546 97.1896 123.632 96.3533 124.729L96.3796 124.686ZM93.4146 137.244C92.7391 141.404 92.239 145.59 91.9495 149.811C93.1952 144.372 94.0549 138.925 95.2655 133.504C94.6251 134.801 94.0198 136.053 93.3882 137.288L93.4146 137.244ZM92.7127 136.718C93.1338 134.179 93.631 131.648 94.2041 129.126C93.2567 130.264 92.3005 131.394 91.318 132.506C89.9047 136.732 88.8139 141.059 88.0546 145.45C89.5898 142.586 91.1512 139.678 92.6864 136.762L92.7127 136.718ZM90.081 133.872L89.774 134.214C83.5631 144.18 78.8786 155.451 80.1945 166.327C80.4401 166.327 80.7121 166.222 80.9753 166.161C80.3524 161.45 81.756 157.29 84.0632 152.902C84.993 151.151 85.9404 149.399 86.8878 147.648C87.5806 142.997 88.6394 138.409 90.0547 133.925L90.081 133.872ZM79.1858 138.487C75.7558 143.12 71.8783 148.655 71.2204 154.479C71.0488 156.064 71.1378 157.668 71.4836 159.225C71.3375 154.57 72.9823 150.036 76.0803 146.553C76.6944 145.852 77.3172 145.169 77.94 144.486C78.5885 142.728 79.3264 141.003 80.1507 139.319C82.914 133.75 87.502 129.94 92.625 126.822C92.9935 125.947 93.3707 125.071 93.7655 124.195C88.2637 128.285 83.3493 133.109 79.1594 138.531L79.1858 138.487ZM83.3527 165.355C84.5464 164.779 85.6138 163.973 86.4931 162.982C86.4363 163.018 86.3708 163.038 86.3036 163.04C86.2364 163.042 86.1698 163.027 86.1107 162.994C86.0517 162.962 86.0023 162.915 85.9678 162.857C85.9332 162.8 85.9146 162.734 85.9141 162.667C85.8473 158.385 86.0818 154.104 86.616 149.855C83.7298 154.916 81.0367 160.066 81.756 165.977C82.2899 165.814 82.8141 165.621 83.3263 165.399L83.3527 165.355Z" fill="#BF826B"/>
<path d="M111.345 96.0134C103.959 95.7595 95.5549 96.3637 88.3704 94.262C81.8437 92.3266 69.3606 84.2609 72.58 75.7662C76.1416 66.5008 91.0985 66.0017 98.0814 70.8008C107.363 77.185 113.31 87.6151 123.232 93.5088C123.232 93.5088 123.293 93.5701 123.328 93.5964C127.715 93.6577 132.153 93.684 136.566 93.5964C138.32 93.5964 135.583 97.8263 133.829 97.8438C125.451 98.019 119.767 96.3112 111.345 96.0134ZM116.696 92.5894C115.527 92.0055 114.325 91.4421 113.091 90.8991C111.88 90.8991 110.67 90.8991 109.459 90.8991C110.489 91.5696 111.571 92.1554 112.696 92.6506C114.024 92.6798 115.357 92.6594 116.696 92.5894ZM115.082 90.9604L115.012 90.9079H114.959C114.959 90.9079 115.047 90.9429 115.082 90.9604ZM108.696 92.3792C109.38 92.458 110.065 92.5017 110.749 92.5455C109.813 92.0435 108.91 91.4819 108.047 90.8641C106.863 90.8641 105.678 90.8641 104.538 90.7853C105.883 91.4178 107.273 91.9506 108.696 92.3792ZM102.687 90.7153C101.617 90.6627 100.538 90.6013 99.4762 90.5225C101.292 91.0651 103.137 91.5066 105.003 91.8449C104.207 91.4946 103.435 91.1181 102.687 90.7153ZM106.994 90.076C105.759 89.1033 104.587 88.0531 103.485 86.932C100.125 85.6008 96.7743 84.2522 93.5022 82.7634C96.2595 85.6156 99.4293 88.0392 102.906 89.9534C104.257 90.0147 105.626 90.0585 106.994 90.076ZM108.292 90.076C109.292 90.076 110.293 90.076 111.293 90.076C109.319 89.2002 107.327 88.4208 105.327 87.6238C106.262 88.5229 107.252 89.3624 108.292 90.1372V90.076ZM83.4315 89.1126C89.3353 92.6155 95.9848 92.6156 102.634 92.9221C104.661 93.0185 106.687 93.0972 108.713 93.176C108.67 93.1798 108.626 93.1798 108.582 93.176C104.278 92.7226 100.05 91.7191 96.0023 90.1898C89.5283 89.3841 83.2648 87.6589 77.5101 83.9895C79.1404 86.0615 81.1497 87.8059 83.4315 89.1301V89.1126ZM76.6592 82.6846C76.7089 82.6526 76.7667 82.6356 76.8258 82.6356C76.885 82.6356 76.9429 82.6526 76.9926 82.6846C81.8321 85.8867 87.3087 88.0049 93.046 88.8936C86.4976 85.9359 80.6455 81.6364 75.8697 76.2742C75.4919 77.3332 75.3665 78.4655 75.5036 79.5812C75.6406 80.697 76.0363 81.7656 76.6592 82.7022V82.6846ZM77.1153 74.2075C76.7785 74.6235 76.4846 75.0724 76.2381 75.5473C81.6767 81.7289 88.5502 86.4858 96.2567 89.4016C97.8796 89.6031 99.52 89.7432 101.169 89.8483C97.6197 87.6579 94.4026 84.9713 91.6161 81.8702C86.8052 79.6486 82.3243 76.7754 78.2997 73.3317C78.2412 73.2769 78.2066 73.2014 78.2032 73.1214C77.8055 73.4531 77.4411 73.8226 77.1153 74.2249V74.2075ZM78.7032 72.7362C78.7558 72.7362 78.7997 72.7361 78.8523 72.7887C82.3204 75.786 86.1518 78.3369 90.2564 80.3814C87.704 77.3553 85.3928 74.1344 83.3438 70.7482C81.6691 71.0714 80.0853 71.7558 78.7032 72.7537V72.7362ZM84.2035 70.6168C86.5026 74.4007 89.1454 77.9654 92.0986 81.2659C95.397 82.851 98.8007 84.2522 102.231 85.6446C98.2129 81.2659 94.7742 76.099 91.3968 71.7641C91.3538 71.709 91.3254 71.6442 91.3138 71.5753C91.3022 71.5065 91.308 71.4358 91.3306 71.3697C91.3532 71.3037 91.392 71.2443 91.4434 71.197C91.4947 71.1496 91.5571 71.1158 91.6249 71.0985C89.2035 70.4718 86.6843 70.3142 84.2035 70.6344V70.6168ZM104.108 80.5216C101.88 78.2884 99.7218 75.5648 97.248 73.6207C95.6408 72.4453 93.816 71.6 91.8793 71.1336H91.9407C95.6075 75.8363 99.3709 81.6425 103.915 86.2314C107.047 87.4662 110.179 88.7098 113.249 90.0672H114.126C110.6 87.1072 107.319 83.7706 104.108 80.504V80.5216ZM118.091 93.2811C117.214 93.3424 116.337 93.3862 115.46 93.4037C116.416 93.4037 117.381 93.465 118.337 93.4913L118.091 93.2811Z" fill="#BF826B"/>
<path d="M83.2561 114.72C72.9924 118.547 61.0971 118.88 50.3421 117.496C43.6049 116.62 31.9201 114.588 28.6041 107.434C24.1214 97.7303 36.6659 92.6423 44.1224 94.096C51.2193 95.4884 57.4652 100.147 63.6234 103.659C67.985 106.264 72.5849 108.449 77.361 110.183C77.6768 110.183 77.9927 110.122 78.2998 110.078C78.6068 110.035 78.712 110.35 78.6155 110.595C82.5105 111.795 91.4233 109.623 95.7217 109.483C97.4762 109.422 92.6075 114.991 90.8618 115.053C88.4037 115.131 85.944 114.964 83.5193 114.553C83.4383 114.619 83.35 114.675 83.2561 114.72ZM31.4989 103.335C43.7667 108.72 57.1012 111.248 70.4923 110.726C63.7483 108.99 57.2604 106.381 51.193 102.967C44.9388 101.611 38.565 100.878 32.1656 100.778C31.7889 101.559 31.5741 102.408 31.534 103.274L31.4989 103.335ZM73.2556 111.585L72.7731 111.392C72.2292 111.392 71.6853 111.453 71.1502 111.471C71.8871 111.488 72.5888 111.523 73.2906 111.558L73.2556 111.585ZM31.5077 104.176C31.6064 105.237 31.9262 106.266 32.4464 107.197C37.3063 107.991 42.1692 108.689 47.0349 109.29C41.7273 108.043 36.5424 106.322 31.5428 104.15L31.5077 104.176ZM68.2377 109.29C66.9687 108.648 65.6996 107.979 64.4305 107.285C64.0621 107.083 63.7024 106.864 63.3252 106.654C60.8689 105.778 58.4039 104.85 55.8687 104.141C55.3072 103.983 54.7458 103.843 54.1931 103.694C58.6978 105.995 63.4125 107.86 68.2729 109.264L68.2377 109.29ZM77.8874 113.266C77.8593 113.32 77.8164 113.366 77.7636 113.397C77.7108 113.428 77.6503 113.443 77.5891 113.441C64.5709 113.073 51.5526 112.703 38.5344 112.329C42.4206 114.08 47.3068 114.807 51.7807 115.149C59.5861 114.37 67.4297 114.037 75.2732 114.151C76.3171 113.932 77.3435 113.686 78.3699 113.415C78.2822 113.336 78.1243 113.292 77.9576 113.24L77.8874 113.266ZM70.8694 114.886C66.378 114.921 61.8895 115.099 57.4038 115.42C57.9302 115.42 58.4302 115.42 58.9127 115.42C62.9417 115.532 66.9735 115.344 70.9747 114.86L70.8694 114.886ZM36.8589 111.515L75.8786 112.618L75.4575 112.469C61.2028 111.829 46.997 110.367 32.9114 108.09C33.2997 108.642 33.7404 109.155 34.2272 109.623C35.0607 110.353 35.9797 110.979 36.9642 111.488L36.8589 111.515ZM37.2273 96.7757C35.2969 97.2239 33.6059 98.3807 32.4902 100.016C38.011 100.12 43.5132 100.688 48.9385 101.715C46.3067 100.139 43.675 98.3784 41.0433 96.4605C39.7989 96.3639 38.547 96.4614 37.3326 96.7495L37.2273 96.7757ZM50.3859 99.3417C47.9331 98.0576 45.3059 97.1372 42.5872 96.6094C45.4058 98.6401 48.3344 100.514 51.3596 102.223C51.9825 102.363 52.6053 102.503 53.2282 102.652C55.4739 103.213 57.667 103.913 59.8338 104.666C56.8424 102.783 53.737 100.901 50.4912 99.3154L50.3859 99.3417Z" fill="#BF826B"/>
<path d="M40.5609 140.502C32.306 145.284 -3.02042 155.136 0.207822 134.713C1.44473 126.832 10.1294 126.762 16.1385 128.469C26.8584 131.508 39.1134 141.054 50.7895 136.351C52.4124 135.694 53.1142 138.313 51.5176 138.978C48.1819 140.225 44.5821 140.599 41.0608 140.064C40.933 140.249 40.7613 140.4 40.5609 140.502ZM8.41878 143.007C16.3929 143.007 24.2968 142.7 31.8937 140.283C30.828 140.027 29.7768 139.714 28.7445 139.346C27.1742 139.241 25.6039 139.171 24.0337 139.083C24.0337 139.083 23.9635 139.144 23.9021 139.144C18.0927 139.029 12.3196 140.083 6.92751 142.245C7.41876 142.525 7.91875 142.779 8.41878 143.007ZM32.5429 139.644C32.8148 139.696 33.0867 139.74 33.3586 139.784L33.5517 139.723L32.5429 139.644ZM35.9027 139.906C35.5079 139.906 35.1219 139.845 34.7272 139.81C34.7361 139.868 34.7361 139.927 34.7272 139.985C35.0079 139.985 35.2799 140.047 35.6044 140.064L35.9027 139.906ZM34.1482 140.712C33.8938 140.712 33.6482 140.625 33.4025 140.581C25.946 143.208 18.2439 143.681 10.4013 143.768C10.8995 143.925 11.4062 144.054 11.919 144.154C19.2702 145.459 27.2268 143.768 34.157 140.712H34.1482ZM6.07651 141.754C9.57406 140.3 13.2449 139.302 16.9982 138.786C12.2874 138.628 7.58544 138.558 2.86588 138.593C3.67841 139.888 4.78792 140.972 6.10285 141.754H6.07651ZM2.51497 137.822C10.2171 137.743 17.9017 137.953 25.5863 138.391C25.4021 138.391 25.2266 138.321 25.0424 138.278C17.9456 136.64 11.6733 132.971 4.32203 132.375C4.03891 132.595 3.77746 132.841 3.54127 133.111C2.96299 133.732 2.56462 134.499 2.3885 135.328C2.21238 136.158 2.26519 137.02 2.54131 137.822H2.51497ZM5.33087 131.692C10.5943 132.314 15.2349 134.389 20.244 136.071C21.3844 136.456 22.5248 136.771 23.6828 137.069C19.9984 135.134 16.4806 132.752 13.0331 130.597C10.5505 130.299 7.55032 130.466 5.35722 131.692H5.33087ZM22.7704 134.091C20.3797 132.917 17.9084 131.913 15.3752 131.088L15.1647 131.035C18.938 133.613 22.9097 135.888 27.0426 137.84C29.8261 138.36 32.6383 138.714 35.464 138.899C31.1257 137.619 26.8911 136.012 22.7967 134.091H22.7704Z" fill="#BF826B"/>
<path d="M48.9122 185.743C42.868 183.895 40.359 176.591 40.5257 170.907C40.8591 159.146 50.4999 150.248 56.9652 141.351C57.6753 138.457 58.6019 135.62 59.7373 132.865C60.3952 131.271 63.0269 131.989 62.369 133.583C61.2384 136.32 60.3204 139.139 59.6232 142.016C59.608 142.103 59.5846 142.188 59.5531 142.27C58.3798 147.273 57.8114 152.397 57.86 157.535C57.86 163.84 59.0706 170.321 58.0793 176.582C57.3161 181.661 55.1406 187.643 48.9122 185.743ZM55.2722 179.201C54.2195 172.072 55.3423 164.917 55.0879 157.736C55.0879 157.684 55.0879 157.657 55.0879 157.614V157.57C55.0879 156.983 55.0879 156.405 55.0879 155.818C53.3334 164.374 52.1842 172.922 53.8948 181.583C54.4902 180.875 54.9565 180.069 55.2722 179.201ZM55.3774 151.177C55.4827 149.916 55.6318 148.672 55.8073 147.42C55.6932 147.814 55.5879 148.199 55.4651 148.585C55.4889 148.637 55.5011 148.694 55.5011 148.751C55.5011 148.808 55.4889 148.865 55.4651 148.917L55.1142 149.635C53.6404 154.014 51.693 158.183 50.4561 162.632C48.5693 169.451 48.9385 176.697 51.5088 183.29C52.1838 183.101 52.8035 182.752 53.3158 182.274C51.114 171.783 53.0527 161.467 55.3774 151.133V151.177ZM51.3772 152.99C48.9384 161.966 44.7101 169.629 45.0961 178.877C45.4636 179.489 45.874 180.074 46.3242 180.628C45.3154 169.524 49.5964 159.347 54.3774 149.355L54.5352 148.874C53.465 150.222 52.4035 151.571 51.3772 152.946V152.99ZM47.1839 181.609C48.0877 182.617 49.3426 183.244 50.6929 183.36C48.5882 177.916 47.9353 172.02 48.7981 166.248C49.0631 164.715 49.4264 163.199 49.8859 161.712C47.6665 168.079 46.333 174.585 47.1839 181.565V181.609ZM43.8593 176.214L43.9909 176.573C44.4558 168.989 47.7629 162.229 50.0437 154.794C48.3537 157.134 46.8853 159.626 45.6575 162.237C43.6399 166.529 42.403 171.468 43.8593 176.171V176.214ZM55.7634 165.136C55.4782 169.195 55.4782 173.268 55.7634 177.327C56.509 173.71 56.1757 169.182 55.7634 165.092V165.136Z" fill="#BF826B"/>
</g>
<defs>
<clipPath id="clip0_67_134">
<rect width="541" height="400" fill="white"/>
</clipPath>
</defs>
</svg>
