<svg width="600" height="400" viewBox="0 0 600 400" fill="none" xmlns="http://www.w3.org/2000/svg">
<g clip-path="url(#clip0_65_84)">
<path fill-rule="evenodd" clip-rule="evenodd" d="M300 321.954C268.726 351.6 232.673 378.571 199.999 400C136.842 358.578 61.053 296.447 31.5784 234.315C-10.5261 151.472 -10.5261 68.629 31.5784 27.2085C73.6842 -14.2137 157.894 -14.2137 199.999 68.629C210.339 48.2862 223.218 32.938 237.389 21.9729C254.387 7.94189 276.706 -0.0943804 300 0.000938797C323.295 -0.0943804 345.614 7.94189 362.612 21.9746C376.782 32.9398 389.66 48.2862 399.999 68.629C442.105 -14.2137 526.315 -14.2137 568.42 27.2085C610.527 68.629 610.527 151.472 568.42 234.315C538.946 296.447 463.157 358.578 399.999 400C367.326 378.571 331.273 351.6 300 321.954Z" fill="#D94141"/>
</g>
<defs>
<clipPath id="clip0_65_84">
<rect width="600" height="400" fill="white"/>
</clipPath>
</defs>
</svg>
